# xmcd
#
# Track frame offsets: 
#        150
#        22585
#        44025
#        64942
#        82334
#        101934
#        121153
#        140678
#        154550
#        173132
#        197381
#        216784
#        240245
#        263731
#        283090
#        302249
#
# Disc length: 4260 seconds
#
# Revision: 0
# Processed by: cddbd v1.5.2PL0 Copyright (c) Steve Scherf et al.
# Submitted via: ExactAudioCopy v0.99pb4
#
DISCID=e110a210
DTITLE=Adriano Celentano - Un po'artista un po'no and Soli
DYEAR=1995
DGENRE=Pop
TTITLE0=Un po'artista un po'no
TTITLE1=L'orologio
TTITLE2=Manifesto
TTITLE3=Il tempo se ne va
TTITLE4=Una parola non ci scappa mai
TTITLE5=Nosse ne parla neemeno
TTITLE6=Se none e more
TTITLE7=Spettabile signore
TTITLE8=Soli
TTITLE9=People
TTITLE10=Pay, pay, pay,
TTITLE11=Io e te
TTITLE12=Amore no
TTITLE13=Non e
TTITLE14=Syivali e colbacco
TTITLE15=Medley
EXTD=
EXTT0=
EXTT1=
EXTT2=
EXTT3=
EXTT4=
EXTT5=
EXTT6=
EXTT7=
EXTT8=
EXTT9=
EXTT10=
EXTT11=
EXTT12=
EXTT13=
EXTT14=
EXTT15=
PLAYORDER=
